<svg width="19" height="13" viewBox="0 0 19 13" fill="none" xmlns="http://www.w3.org/2000/svg">
<path fill-rule="evenodd" clip-rule="evenodd" d="M0.0380859 12.3175V0H5.59589C7.38106 0 8.82823 1.48268 8.82823 3.31165C8.82823 4.47388 8.47942 5.19382 7.20043 5.93239C8.73093 6.64686 9.15599 7.63708 9.15599 9.0183C9.15599 10.8868 7.53586 12.3175 5.71214 12.3175H0.0380859ZM2.38991 2.03895V5.00084H5.14247C5.14247 5.00084 6.48031 5.00084 6.48031 3.51989C6.48031 2.03895 5.14247 2.03895 5.14247 2.03895H2.38991ZM2.38991 10.2314V7.0332H5.34238C5.81908 7.0332 6.81861 7.28528 6.81861 8.79774C6.81861 9.91947 5.83446 10.2209 5.34238 10.2314H2.38991Z" fill="#C4C4C4"/>
<path fill-rule="evenodd" clip-rule="evenodd" d="M14.1844 3.39386C12.4929 3.39386 9.98637 4.63848 9.98637 7.94698C9.98637 9.96157 11.0628 12.5474 14.2921 12.5474C16.8755 12.5474 18.0647 10.6043 18.3363 9.63274H15.9067C15.7837 10.0739 15.307 10.5623 14.2921 10.5623C12.8158 10.5623 12.293 9.27038 12.2161 8.62443H18.3363V7.94698C18.3363 4.63848 15.8759 3.39386 14.1844 3.39386ZM14.1844 5.28443C12.8066 5.28443 12.2981 6.45028 12.2161 7.0332H15.9067C15.9067 6.45028 15.5622 5.28443 14.1844 5.28443Z" fill="#C4C4C4"/>
<path d="M11.2473 0.699794V2.228H17.0446V0.699794H11.2473Z" fill="#C4C4C4"/>
</svg>
