<svg width="13" height="14" viewBox="0 0 13 14" fill="none" xmlns="http://www.w3.org/2000/svg">
<path fill-rule="evenodd" clip-rule="evenodd" d="M12.9541 6.79651C12.9541 10.2614 10.1453 13.0702 6.68042 13.0702C3.21556 13.0702 0.406738 10.2614 0.406738 6.79651C0.406738 3.33165 3.21556 0.522827 6.68042 0.522827C10.1453 0.522827 12.9541 3.33165 12.9541 6.79651ZM8.88696 11.7019C8.2137 12.0052 7.46677 12.174 6.68042 12.174C5.38225 12.174 4.19152 11.7139 3.26234 10.948C4.22895 9.32602 5.78367 8.09618 7.63179 7.55209C8.16261 8.88391 8.58465 10.2708 8.88696 11.7019ZM9.70465 11.2436C9.40683 9.90428 9.00753 8.60323 8.51523 7.34893C8.92504 7.28033 9.34598 7.24463 9.77525 7.24463C10.5507 7.24463 11.2982 7.36098 12.0016 7.57693C11.7804 9.09905 10.9215 10.4145 9.70465 11.2436ZM12.0561 6.65908C11.33 6.45656 10.565 6.34839 9.77525 6.34839C9.22474 6.34839 8.68653 6.4009 8.16532 6.50117C8.02937 6.18743 7.88752 5.87684 7.73992 5.56955C8.91315 5.04878 9.9974 4.36403 10.9634 3.54446C11.6244 4.41359 12.0268 5.49 12.0561 6.65908ZM10.3633 2.8782C9.45642 3.64435 8.43873 4.28325 7.33769 4.76745C6.75648 3.65602 6.09863 2.59105 5.37119 1.57957C5.79027 1.47473 6.22885 1.41907 6.68042 1.41907C8.10549 1.41907 9.40109 1.9734 10.3633 2.8782ZM4.48577 1.88583C2.90713 2.59243 1.73141 4.03788 1.39847 5.78234C1.7044 5.80482 2.01346 5.81626 2.32526 5.81626C3.78968 5.81626 5.19493 5.56381 6.50001 5.1C5.90726 3.97655 5.23324 2.90256 4.48577 1.88583ZM1.30435 6.67405C1.30344 6.71476 1.30298 6.75558 1.30298 6.79651C1.30298 8.1373 1.79369 9.36348 2.60531 10.3053C3.67445 8.61109 5.328 7.32172 7.28326 6.72084C7.16254 6.44666 7.03714 6.17499 6.90716 5.90595C5.47801 6.42775 3.93478 6.7125 2.32526 6.7125C1.98185 6.7125 1.64139 6.69953 1.30435 6.67405Z" fill="#C4C4C4"/>
</svg>
