<svg width="14" height="13" viewBox="0 0 14 13" fill="none" xmlns="http://www.w3.org/2000/svg">
<path d="M11.2859 3.22835C11.2859 3.72643 10.8645 4.1302 10.3448 4.1302C9.82509 4.1302 9.40376 3.72643 9.40376 3.22835C9.40376 2.73028 9.82509 2.32651 10.3448 2.32651C10.8645 2.32651 11.2859 2.73028 11.2859 3.22835Z" fill="#C4C4C4"/>
<path fill-rule="evenodd" clip-rule="evenodd" d="M6.89429 9.54125C8.62672 9.54125 10.0311 8.19535 10.0311 6.53511C10.0311 4.87486 8.62672 3.52897 6.89429 3.52897C5.16186 3.52897 3.75745 4.87486 3.75745 6.53511C3.75745 8.19535 5.16186 9.54125 6.89429 9.54125ZM6.89429 8.33879C7.93375 8.33879 8.77639 7.53126 8.77639 6.53511C8.77639 5.53896 7.93375 4.73142 6.89429 4.73142C5.85483 4.73142 5.01218 5.53896 5.01218 6.53511C5.01218 7.53126 5.85483 8.33879 6.89429 8.33879Z" fill="#C4C4C4"/>
<path fill-rule="evenodd" clip-rule="evenodd" d="M0.620605 6.29462C0.620605 4.2743 0.620605 3.26414 1.03088 2.49248C1.39177 1.81371 1.96762 1.26186 2.6759 0.916007C3.48111 0.522827 4.53519 0.522827 6.64334 0.522827H7.14524C9.25339 0.522827 10.3075 0.522827 11.1127 0.916007C11.821 1.26186 12.3968 1.81371 12.7577 2.49248C13.168 3.26414 13.168 4.2743 13.168 6.29462V6.7756C13.168 8.79592 13.168 9.80607 12.7577 10.5777C12.3968 11.2565 11.821 11.8084 11.1127 12.1542C10.3075 12.5474 9.25339 12.5474 7.14524 12.5474H6.64334C4.53519 12.5474 3.48111 12.5474 2.6759 12.1542C1.96762 11.8084 1.39177 11.2565 1.03088 10.5777C0.620605 9.80607 0.620605 8.79592 0.620605 6.7756V6.29462ZM6.64334 1.72528H7.14524C8.22002 1.72528 8.95064 1.72622 9.51539 1.77044C10.0655 1.81351 10.3468 1.89158 10.543 1.9874C11.0152 2.21797 11.3991 2.58588 11.6397 3.03839C11.7397 3.22645 11.8212 3.49605 11.8661 4.02322C11.9123 4.56444 11.9132 5.26462 11.9132 6.29462V6.7756C11.9132 7.8056 11.9123 8.50578 11.8661 9.04699C11.8212 9.57417 11.7397 9.84376 11.6397 10.0318C11.3991 10.4843 11.0152 10.8522 10.543 11.0828C10.3468 11.1786 10.0655 11.2567 9.51539 11.2998C8.95064 11.344 8.22002 11.3449 7.14524 11.3449H6.64334C5.56856 11.3449 4.83794 11.344 4.27319 11.2998C3.7231 11.2567 3.44178 11.1786 3.24554 11.0828C2.77335 10.8522 2.38945 10.4843 2.14886 10.0318C2.04887 9.84376 1.9674 9.57417 1.92246 9.04699C1.87632 8.50578 1.87534 7.8056 1.87534 6.7756V6.29462C1.87534 5.26462 1.87632 4.56444 1.92246 4.02322C1.9674 3.49605 2.04887 3.22645 2.14886 3.03839C2.38945 2.58588 2.77335 2.21797 3.24554 1.9874C3.44178 1.89158 3.7231 1.81351 4.27319 1.77044C4.83794 1.72622 5.56856 1.72528 6.64334 1.72528Z" fill="#C4C4C4"/>
</svg>
