<svg width="14" height="13" viewBox="0 0 14 13" fill="none" xmlns="http://www.w3.org/2000/svg">
<path d="M3.58758 1.51657C3.58758 2.35415 2.88176 3.03314 2.01108 3.03314C1.1404 3.03314 0.43457 2.35415 0.43457 1.51657C0.43457 0.678993 1.1404 0 2.01108 0C2.88176 0 3.58758 0.678993 3.58758 1.51657Z" fill="#C4C4C4"/>
<path d="M0.650161 4.14789H3.34504V12.5474H0.650161V4.14789Z" fill="#C4C4C4"/>
<path d="M7.6838 4.14789H4.98892V12.5474H7.6838C7.6838 12.5474 7.6838 9.90309 7.6838 8.24977C7.6838 7.25741 8.01323 6.26072 9.32768 6.26072C10.8132 6.26072 10.8042 7.55937 10.7973 8.56546C10.7882 9.88055 10.8099 11.2226 10.8099 12.5474H13.5047V8.11431C13.4819 5.28368 12.7648 3.97938 10.4056 3.97938C9.0046 3.97938 8.13614 4.63362 7.6838 5.22552V4.14789Z" fill="#C4C4C4"/>
</svg>
