<svg width="30" height="30" viewBox="0 0 30 30" fill="none" xmlns="http://www.w3.org/2000/svg">
<g clip-path="url(#clip0)">
<path d="M11.3108 11.3577H8.18025V20.7589H11.3108V11.3577ZM11.51 8.4548C11.5006 7.5346 10.8365 6.83259 9.76451 6.83259C8.70201 6.83259 8 7.5346 8 8.4548C8 9.35603 8.67355 10.077 9.72656 10.077H9.74554C10.8365 10.077 11.5195 9.35603 11.51 8.4548ZM22.5714 15.3705C22.5714 12.4866 21.0346 11.1395 18.976 11.1395C17.2874 11.1395 16.5474 12.0787 16.1395 12.7238H16.1585V11.3577H13.0374C13.0374 11.3577 13.0753 12.24 13.0374 20.7589H16.1585V15.5128C16.1585 15.2282 16.1869 14.9531 16.2628 14.7444C16.4905 14.1847 17.0028 13.606 17.8661 13.606C18.995 13.606 19.4503 14.4693 19.4503 15.731V20.7589H22.5714V15.3705Z" fill="#F3F8FE"/>
<circle cx="15" cy="15" r="15" stroke="#F3F8FE"/>
</g>
<defs>
<clipPath id="clip0">
<rect width="30" height="30" fill="white"/>
</clipPath>
</defs>
</svg>
