<svg width="60" height="46" viewBox="0 0 60 46" fill="none" xmlns="http://www.w3.org/2000/svg">
<path d="M53.6503 26.8249L59.3593 26.8469L59.2861 24.737C59.3105 22.8689 59.3105 21.0008 59.3105 19.1106C59.2617 4.91285 42.6957 -4.29594 28.6183 2.03373C25.0075 3.6601 22.1529 6.07768 20.1523 8.93482C21.4942 8.20955 22.9825 7.72603 24.6171 7.50625C31.7656 0.693069 44.8183 0.583179 51.9424 7.76999C56.7488 12.6052 56.8708 18.4073 56.578 24.3414C56.578 24.4733 56.578 24.6051 56.5536 24.737H51.3325L51.3813 37.5502L40.4756 33.6161L39.6216 35.5722L53.7235 40.6491L53.6503 26.8249Z" fill="#3CBEB3"/>
<path d="M23.3973 32.3194L23.9096 38.3853L43.1349 45.2425L44.2328 38.737L41.8419 37.9018L40.9391 42.2974L26.5201 36.8688L26.1298 32.1216C26.1298 31.9897 26.1298 31.8139 26.1298 31.6381C25.1539 30.9128 24.3 30.1216 23.5436 29.2864C22.0554 28.9567 20.6891 28.4073 19.4692 27.6381C20.6159 29.3743 22.3238 31.2205 23.3973 32.3194Z" fill="#3CBEB3"/>
<path d="M28.5208 29.0887C31.6437 28.6491 34.2055 27.3304 36.3037 25.0447L36.3769 24.9788H41.3296L42.9398 26.737H48.8928C48.9904 26.1436 49.0636 25.5942 48.7952 24.9568H43.8181L42.0127 23.0667H37.6455L37.7675 22.781C38.4507 21.2645 38.6702 19.792 38.7922 18.6711L38.8166 18.4733H42.5494L44.1353 20.2095H53.2112L53.2356 20.0117C53.2844 19.4843 53.3332 18.9788 53.138 18.4513H44.9404L43.2814 16.5612H38.6458L37.6699 13.792H42.2811L43.9401 11.9238H48.8928C48.9904 11.2645 49.0148 10.737 48.8684 10.1876H42.9154L41.354 11.9238H36.3525L36.2793 11.8579C33.9859 9.48427 31.4485 8.20955 28.472 7.90186C28.3744 8.67109 28.3744 9.24251 28.472 9.76999C33.6443 11.0008 36.3281 13.8139 36.4988 18.1216C36.6696 22.737 33.9371 25.792 28.4232 27.1766C28.4232 27.3524 28.4232 27.5502 28.3988 27.704C28.3744 28.1656 28.35 28.6271 28.5208 29.0887Z" fill="#F99E21"/>
<path d="M17.0539 11.8798L16.9807 11.9457H11.906L10.369 10.1875H4.44036V11.9897H9.56386L11.1497 13.8578H15.6145L14.6142 16.5831H14.4678C14.2726 16.6051 14.053 16.6051 13.7846 16.6051C13.4919 16.6051 13.1991 16.6051 12.9063 16.5831C12.6136 16.5831 12.3208 16.5611 12.028 16.5611C10.369 16.5611 9.10031 16.8688 8.27079 18.3853L8.19759 18.4952H0C0.0243976 18.7369 0.0243972 18.9567 0.0243972 19.1765C-3.72641e-07 19.5501 -0.0243968 19.9018 0.195182 20.2314H9.1247L10.7837 18.4512H14.4434L14.4678 18.649C14.6142 19.9457 14.8337 21.3523 15.5169 22.7589L15.6633 23.0446H11.1497L9.41747 24.9567H4.41597V26.693H10.4666L12.0036 24.9127H16.9563L17.0295 24.9787C19.1277 27.2864 21.6651 28.6051 24.8124 29.0007V27.0886C19.4449 25.4622 16.7124 22.5391 16.7124 18.3853C16.7124 14.2534 19.3473 11.4182 24.8368 9.70396V7.79187C21.7139 8.27539 19.1765 9.59407 17.0539 11.8798Z" fill="#F99E21"/>
<path d="M26.4471 25.3525C26.9595 25.3525 27.4718 25.3085 27.9598 25.1986C31.4486 24.6272 33.9372 22.1876 34.1812 19.1107V19.0887C34.3276 18.3635 34.3032 17.6162 34.0592 16.825C33.1565 13.7261 30.1799 11.6382 26.6667 11.6382C26.1299 11.6382 25.5932 11.6821 25.0564 11.792C21.104 12.5173 18.4935 15.9679 19.1278 19.6382C19.689 22.847 22.9095 25.3525 26.4471 25.3525V25.5722V25.3525ZM23.3242 21.4404C22.4459 20.6492 21.9823 19.5722 21.9823 18.4074C21.9823 16.1217 24.0805 14.2536 26.6179 14.2536H26.6667C29.1796 14.2755 31.3266 16.2096 31.3266 18.4733C31.351 20.7591 29.2528 22.6492 26.6667 22.6492H26.6423C25.52 22.6492 24.4953 22.3195 23.6658 21.7261C23.5438 21.6382 23.4462 21.5503 23.3242 21.4404Z" fill="#E61E36"/>
</svg>
