<svg width="250" height="47" viewBox="0 0 250 47" fill="none" xmlns="http://www.w3.org/2000/svg">
<path d="M84.4411 31.4299C85.1011 31.4299 85.6411 31.3799 86.0611 31.2799C86.5011 31.1599 86.8511 31.0099 87.1111 30.8299C87.3711 30.6299 87.5511 30.3999 87.6511 30.1399C87.7511 29.8799 87.8011 29.5899 87.8011 29.2699C87.8011 28.5899 87.4811 28.0299 86.8411 27.5899C86.2011 27.1299 85.1011 26.6399 83.5411 26.1199C82.8611 25.8799 82.1811 25.6099 81.5011 25.3099C80.8211 24.9899 80.2111 24.5999 79.6711 24.1399C79.1311 23.6599 78.6911 23.0899 78.3511 22.4299C78.0111 21.7499 77.8411 20.9299 77.8411 19.9699C77.8411 19.0099 78.0211 18.1499 78.3811 17.3899C78.7411 16.6099 79.2511 15.9499 79.9111 15.4099C80.5711 14.8699 81.3711 14.4599 82.3111 14.1799C83.2511 13.8799 84.3111 13.7299 85.4911 13.7299C86.8911 13.7299 88.1011 13.8799 89.1211 14.1799C90.1411 14.4799 90.9811 14.8099 91.6411 15.1699L90.2911 18.8599C89.7111 18.5599 89.0611 18.2999 88.3411 18.0799C87.6411 17.8399 86.7911 17.7199 85.7911 17.7199C84.6711 17.7199 83.8611 17.8799 83.3611 18.1999C82.8811 18.4999 82.6411 18.9699 82.6411 19.6099C82.6411 19.9899 82.7311 20.3099 82.9111 20.5699C83.0911 20.8299 83.3411 21.0699 83.6611 21.2899C84.0011 21.4899 84.3811 21.6799 84.8011 21.8599C85.2411 22.0199 85.7211 22.1899 86.2411 22.3699C87.3211 22.7699 88.2611 23.1699 89.0611 23.5699C89.8611 23.9499 90.5211 24.3999 91.0411 24.9199C91.5811 25.4399 91.9811 26.0499 92.2411 26.7499C92.5011 27.4499 92.6311 28.2999 92.6311 29.2999C92.6311 31.2399 91.9511 32.7499 90.5911 33.8299C89.2311 34.8899 87.1811 35.4199 84.4411 35.4199C83.5211 35.4199 82.6911 35.3599 81.9511 35.2399C81.2111 35.1399 80.5511 35.0099 79.9711 34.8499C79.4111 34.6899 78.9211 34.5199 78.5011 34.3399C78.1011 34.1599 77.7611 33.9899 77.4811 33.8299L78.8011 30.1099C79.4211 30.4499 80.1811 30.7599 81.0811 31.0399C82.0011 31.2999 83.1211 31.4299 84.4411 31.4299ZM100.314 31.8799C100.754 31.8799 101.174 31.8699 101.574 31.8499C101.974 31.8299 102.294 31.7999 102.534 31.7599V28.3699C102.354 28.3299 102.084 28.2899 101.724 28.2499C101.364 28.2099 101.034 28.1899 100.734 28.1899C100.314 28.1899 99.9136 28.2199 99.5336 28.2799C99.1736 28.3199 98.8536 28.4099 98.5736 28.5499C98.2936 28.6899 98.0736 28.8799 97.9136 29.1199C97.7536 29.3599 97.6736 29.6599 97.6736 30.0199C97.6736 30.7199 97.9036 31.2099 98.3636 31.4899C98.8436 31.7499 99.4936 31.8799 100.314 31.8799ZM99.9536 18.7999C101.274 18.7999 102.374 18.9499 103.254 19.2499C104.134 19.5499 104.834 19.9799 105.354 20.5399C105.894 21.0999 106.274 21.7799 106.494 22.5799C106.714 23.3799 106.824 24.2699 106.824 25.2499V34.5499C106.184 34.6899 105.294 34.8499 104.154 35.0299C103.014 35.2299 101.634 35.3299 100.014 35.3299C98.9936 35.3299 98.0636 35.2399 97.2236 35.0599C96.4036 34.8799 95.6936 34.5899 95.0936 34.1899C94.4936 33.7699 94.0336 33.2299 93.7136 32.5699C93.3936 31.9099 93.2336 31.0999 93.2336 30.1399C93.2336 29.2199 93.4136 28.4399 93.7736 27.7999C94.1536 27.1599 94.6536 26.6499 95.2736 26.2699C95.8936 25.8899 96.6036 25.6199 97.4036 25.4599C98.2036 25.2799 99.0336 25.1899 99.8936 25.1899C100.474 25.1899 100.984 25.2199 101.424 25.2799C101.884 25.3199 102.254 25.3799 102.534 25.4599V25.0399C102.534 24.2799 102.304 23.6699 101.844 23.2099C101.384 22.7499 100.584 22.5199 99.4436 22.5199C98.6836 22.5199 97.9336 22.5799 97.1936 22.6999C96.4536 22.7999 95.8136 22.9499 95.2736 23.1499L94.7036 19.5499C94.9636 19.4699 95.2836 19.3899 95.6636 19.3099C96.0636 19.2099 96.4936 19.1299 96.9536 19.0699C97.4136 18.9899 97.8936 18.9299 98.3936 18.8899C98.9136 18.8299 99.4336 18.7999 99.9536 18.7999ZM118.976 26.9899C118.976 24.1099 117.916 22.6699 115.796 22.6699C115.336 22.6699 114.876 22.7299 114.416 22.8499C113.976 22.9699 113.616 23.1199 113.336 23.2999V31.4299C113.556 31.4699 113.836 31.5099 114.176 31.5499C114.516 31.5699 114.886 31.5799 115.286 31.5799C116.506 31.5799 117.426 31.1599 118.046 30.3199C118.666 29.4799 118.976 28.3699 118.976 26.9899ZM123.536 27.1099C123.536 28.3699 123.346 29.5099 122.966 30.5299C122.606 31.5499 122.076 32.4199 121.376 33.1399C120.676 33.8599 119.816 34.4199 118.796 34.8199C117.776 35.1999 116.616 35.3899 115.316 35.3899C114.776 35.3899 114.206 35.3599 113.606 35.2999C113.026 35.2599 112.446 35.1999 111.866 35.1199C111.306 35.0399 110.766 34.9499 110.246 34.8499C109.726 34.7299 109.266 34.6099 108.866 34.4899V12.4399L113.336 11.7199V19.5799C113.836 19.3599 114.356 19.1899 114.896 19.0699C115.436 18.9499 116.016 18.8899 116.636 18.8899C117.756 18.8899 118.746 19.0899 119.606 19.4899C120.466 19.8699 121.186 20.4199 121.766 21.1399C122.346 21.8599 122.786 22.7299 123.086 23.7499C123.386 24.7499 123.536 25.8699 123.536 27.1099ZM124.221 27.2299C124.221 25.8299 124.431 24.6099 124.851 23.5699C125.291 22.5099 125.861 21.6299 126.561 20.9299C127.261 20.2299 128.061 19.6999 128.961 19.3399C129.881 18.9799 130.821 18.7999 131.781 18.7999C134.021 18.7999 135.791 19.4899 137.091 20.8699C138.391 22.2299 139.041 24.2399 139.041 26.8999C139.041 27.1599 139.031 27.4499 139.011 27.7699C138.991 28.0699 138.971 28.3399 138.951 28.5799H128.811C128.911 29.4999 129.341 30.2299 130.101 30.7699C130.861 31.3099 131.881 31.5799 133.161 31.5799C133.981 31.5799 134.781 31.5099 135.561 31.3699C136.361 31.2099 137.011 31.0199 137.511 30.7999L138.111 34.4299C137.871 34.5499 137.551 34.6699 137.151 34.7899C136.751 34.9099 136.301 35.0099 135.801 35.0899C135.321 35.1899 134.801 35.2699 134.241 35.3299C133.681 35.3899 133.121 35.4199 132.561 35.4199C131.141 35.4199 129.901 35.2099 128.841 34.7899C127.801 34.3699 126.931 33.7999 126.231 33.0799C125.551 32.3399 125.041 31.4699 124.701 30.4699C124.381 29.4699 124.221 28.3899 124.221 27.2299ZM134.721 25.5199C134.701 25.1399 134.631 24.7699 134.511 24.4099C134.411 24.0499 134.241 23.7299 134.001 23.4499C133.781 23.1699 133.491 22.9399 133.131 22.7599C132.791 22.5799 132.361 22.4899 131.841 22.4899C131.341 22.4899 130.911 22.5799 130.551 22.7599C130.191 22.9199 129.891 23.1399 129.651 23.4199C129.411 23.6999 129.221 24.0299 129.081 24.4099C128.961 24.7699 128.871 25.1399 128.811 25.5199H134.721ZM144.301 26.9899C144.301 28.3699 144.611 29.4799 145.231 30.3199C145.851 31.1599 146.771 31.5799 147.991 31.5799C148.391 31.5799 148.761 31.5699 149.101 31.5499C149.441 31.5099 149.721 31.4699 149.941 31.4299V23.2999C149.661 23.1199 149.291 22.9699 148.831 22.8499C148.391 22.7299 147.941 22.6699 147.481 22.6699C145.361 22.6699 144.301 24.1099 144.301 26.9899ZM154.411 34.4899C154.011 34.6099 153.551 34.7299 153.031 34.8499C152.511 34.9499 151.961 35.0399 151.381 35.1199C150.821 35.1999 150.241 35.2599 149.641 35.2999C149.061 35.3599 148.501 35.3899 147.961 35.3899C146.661 35.3899 145.501 35.1999 144.481 34.8199C143.461 34.4399 142.601 33.8999 141.901 33.1999C141.201 32.4799 140.661 31.6199 140.281 30.6199C139.921 29.5999 139.741 28.4599 139.741 27.1999C139.741 25.9199 139.901 24.7699 140.221 23.7499C140.541 22.7099 141.001 21.8299 141.601 21.1099C142.201 20.3899 142.931 19.8399 143.791 19.4599C144.671 19.0799 145.671 18.8899 146.791 18.8899C147.411 18.8899 147.961 18.9499 148.441 19.0699C148.941 19.1899 149.441 19.3599 149.941 19.5799V12.4399L154.411 11.7199V34.4899ZM171.356 27.0799C171.356 28.3199 171.176 29.4599 170.816 30.4999C170.456 31.5199 169.936 32.3999 169.256 33.1399C168.576 33.8599 167.756 34.4199 166.796 34.8199C165.856 35.2199 164.796 35.4199 163.616 35.4199C162.456 35.4199 161.396 35.2199 160.436 34.8199C159.496 34.4199 158.686 33.8599 158.006 33.1399C157.326 32.3999 156.796 31.5199 156.416 30.4999C156.036 29.4599 155.846 28.3199 155.846 27.0799C155.846 25.8399 156.036 24.7099 156.416 23.6899C156.816 22.6699 157.356 21.7999 158.036 21.0799C158.736 20.3599 159.556 19.7999 160.496 19.3999C161.456 18.9999 162.496 18.7999 163.616 18.7999C164.756 18.7999 165.796 18.9999 166.736 19.3999C167.696 19.7999 168.516 20.3599 169.196 21.0799C169.876 21.7999 170.406 22.6699 170.786 23.6899C171.166 24.7099 171.356 25.8399 171.356 27.0799ZM166.796 27.0799C166.796 25.6999 166.516 24.6199 165.956 23.8399C165.416 23.0399 164.636 22.6399 163.616 22.6399C162.596 22.6399 161.806 23.0399 161.246 23.8399C160.686 24.6199 160.406 25.6999 160.406 27.0799C160.406 28.4599 160.686 29.5599 161.246 30.3799C161.806 31.1799 162.596 31.5799 163.616 31.5799C164.636 31.5799 165.416 31.1799 165.956 30.3799C166.516 29.5599 166.796 28.4599 166.796 27.0799ZM182.329 23.1799C181.929 23.0799 181.459 22.9799 180.919 22.8799C180.379 22.7599 179.799 22.6999 179.179 22.6999C178.899 22.6999 178.559 22.7299 178.159 22.7899C177.779 22.8299 177.489 22.8799 177.289 22.9399V34.9999H172.819V20.0599C173.619 19.7799 174.559 19.5199 175.639 19.2799C176.739 19.0199 177.959 18.8899 179.299 18.8899C179.539 18.8899 179.829 18.9099 180.169 18.9499C180.509 18.9699 180.849 19.0099 181.189 19.0699C181.529 19.1099 181.869 19.1699 182.209 19.2499C182.549 19.3099 182.839 19.3899 183.079 19.4899L182.329 23.1799ZM187.945 34.9999H183.475V19.2199H187.945V34.9999ZM188.365 14.6599C188.365 15.4799 188.095 16.1299 187.555 16.6099C187.035 17.0699 186.415 17.2999 185.695 17.2999C184.975 17.2999 184.345 17.0699 183.805 16.6099C183.285 16.1299 183.025 15.4799 183.025 14.6599C183.025 13.8399 183.285 13.1999 183.805 12.7399C184.345 12.2599 184.975 12.0199 185.695 12.0199C186.415 12.0199 187.035 12.2599 187.555 12.7399C188.095 13.1999 188.365 13.8399 188.365 14.6599ZM196.177 31.8799C196.617 31.8799 197.037 31.8699 197.437 31.8499C197.837 31.8299 198.157 31.7999 198.397 31.7599V28.3699C198.217 28.3299 197.947 28.2899 197.587 28.2499C197.227 28.2099 196.897 28.1899 196.597 28.1899C196.177 28.1899 195.777 28.2199 195.397 28.2799C195.037 28.3199 194.717 28.4099 194.437 28.5499C194.157 28.6899 193.937 28.8799 193.777 29.1199C193.617 29.3599 193.537 29.6599 193.537 30.0199C193.537 30.7199 193.767 31.2099 194.227 31.4899C194.707 31.7499 195.357 31.8799 196.177 31.8799ZM195.817 18.7999C197.137 18.7999 198.237 18.9499 199.117 19.2499C199.997 19.5499 200.697 19.9799 201.217 20.5399C201.757 21.0999 202.137 21.7799 202.357 22.5799C202.577 23.3799 202.687 24.2699 202.687 25.2499V34.5499C202.047 34.6899 201.157 34.8499 200.017 35.0299C198.877 35.2299 197.497 35.3299 195.877 35.3299C194.857 35.3299 193.927 35.2399 193.087 35.0599C192.267 34.8799 191.557 34.5899 190.957 34.1899C190.357 33.7699 189.897 33.2299 189.577 32.5699C189.257 31.9099 189.097 31.0999 189.097 30.1399C189.097 29.2199 189.277 28.4399 189.637 27.7999C190.017 27.1599 190.517 26.6499 191.137 26.2699C191.757 25.8899 192.467 25.6199 193.267 25.4599C194.067 25.2799 194.897 25.1899 195.757 25.1899C196.337 25.1899 196.847 25.2199 197.287 25.2799C197.747 25.3199 198.117 25.3799 198.397 25.4599V25.0399C198.397 24.2799 198.167 23.6699 197.707 23.2099C197.247 22.7499 196.447 22.5199 195.307 22.5199C194.547 22.5199 193.797 22.5799 193.057 22.6999C192.317 22.7999 191.677 22.9499 191.137 23.1499L190.567 19.5499C190.827 19.4699 191.147 19.3899 191.527 19.3099C191.927 19.2099 192.357 19.1299 192.817 19.0699C193.277 18.9899 193.757 18.9299 194.257 18.8899C194.777 18.8299 195.297 18.7999 195.817 18.7999Z" fill="#0A1331"/>
<path d="M53.6503 26.8249L59.3593 26.8468L59.2861 24.737C59.3105 22.8688 59.3105 21.0007 59.3105 19.1106C59.2617 4.91279 42.6957 -4.296 28.6183 2.03367C25.0075 3.66004 22.1529 6.07762 20.1523 8.93476C21.4942 8.20949 22.9825 7.72597 24.6171 7.50619C31.7656 0.693008 44.8183 0.583118 51.9424 7.76993C56.7488 12.6051 56.8708 18.4073 56.578 24.3414C56.578 24.4732 56.578 24.6051 56.5536 24.737H51.3325L51.3813 37.5501L40.4756 33.6161L39.6216 35.5721L53.7235 40.649L53.6503 26.8249Z" fill="#3CBEB3"/>
<path d="M23.3973 32.3193L23.9096 38.3853L43.1349 45.2424L44.2328 38.7369L41.8419 37.9017L40.9391 42.2973L26.5201 36.8688L26.1298 32.1215C26.1298 31.9897 26.1298 31.8138 26.1298 31.638C25.1539 30.9127 24.3 30.1215 23.5436 29.2864C22.0554 28.9567 20.6891 28.4072 19.4692 27.638C20.6159 29.3743 22.3238 31.2204 23.3973 32.3193Z" fill="#3CBEB3"/>
<path d="M28.5208 29.0885C31.6437 28.649 34.2055 27.3303 36.3037 25.0446L36.3769 24.9786H41.3296L42.9398 26.7369H48.8928C48.9904 26.1435 49.0636 25.594 48.7952 24.9567H43.8181L42.0127 23.0666H37.6455L37.7675 22.7808C38.4507 21.2644 38.6702 19.7918 38.7922 18.671L38.8166 18.4732H42.5494L44.1353 20.2094H53.2112L53.2356 20.0116C53.2844 19.4841 53.3332 18.9786 53.138 18.4512H44.9404L43.2814 16.5611H38.6458L37.6699 13.7918H42.2811L43.9401 11.9237H48.8928C48.9904 11.2644 49.0148 10.7369 48.8684 10.1874H42.9154L41.354 11.9237H36.3525L36.2793 11.8578C33.9859 9.48415 31.4485 8.20943 28.472 7.90173C28.3744 8.67096 28.3744 9.24239 28.472 9.76986C33.6443 11.0006 36.3281 13.8138 36.4988 18.1215C36.6696 22.7369 33.9371 25.7918 28.4232 27.1764C28.4232 27.3523 28.4232 27.5501 28.3988 27.7039C28.3744 28.1655 28.35 28.627 28.5208 29.0885Z" fill="#F99E21"/>
<path d="M17.0539 11.8797L16.9807 11.9457H11.906L10.369 10.1874H4.44036V11.9896H9.56386L11.1497 13.8577H15.6145L14.6142 16.583H14.4678C14.2726 16.605 14.053 16.605 13.7846 16.605C13.4919 16.605 13.1991 16.605 12.9063 16.583C12.6136 16.583 12.3208 16.561 12.028 16.561C10.369 16.561 9.10031 16.8687 8.27079 18.3852L8.19759 18.4951H0C0.0243976 18.7369 0.0243972 18.9566 0.0243972 19.1764C-3.72641e-07 19.55 -0.0243968 19.9017 0.195182 20.2314H9.1247L10.7837 18.4511H14.4434L14.4678 18.6489C14.6142 19.9457 14.8337 21.3522 15.5169 22.7588L15.6633 23.0446H11.1497L9.41747 24.9566H4.41597V26.6929H10.4666L12.0036 24.9127H16.9563L17.0295 24.9786C19.1277 27.2863 21.6651 28.605 24.8124 29.0006V27.0885C19.4449 25.4621 16.7124 22.5391 16.7124 18.3852C16.7124 14.2533 19.3473 11.4182 24.8368 9.7039V7.79181C21.7139 8.27533 19.1765 9.59401 17.0539 11.8797Z" fill="#F99E21"/>
<path d="M26.4471 25.3524C26.9595 25.3524 27.4718 25.3084 27.9598 25.1986C31.4486 24.6271 33.9372 22.1876 34.1812 19.1106V19.0887C34.3276 18.3634 34.3032 17.6161 34.0592 16.8249C33.1565 13.726 30.1799 11.6381 26.6667 11.6381C26.1299 11.6381 25.5932 11.6821 25.0564 11.792C21.104 12.5172 18.4935 15.9678 19.1278 19.6381C19.689 22.8469 22.9095 25.3524 26.4471 25.3524V25.5722V25.3524ZM23.3242 21.4403C22.4459 20.6491 21.9823 19.5722 21.9823 18.4074C21.9823 16.1216 24.0805 14.2535 26.6179 14.2535H26.6667C29.1796 14.2755 31.3266 16.2095 31.3266 18.4733C31.351 20.759 29.2528 22.6491 26.6667 22.6491H26.6423C25.52 22.6491 24.4953 22.3194 23.6658 21.726C23.5438 21.6381 23.4462 21.5502 23.3242 21.4403Z" fill="#E61E36"/>
</svg>
