<svg width="1920" height="4641" viewBox="0 0 1920 4641" fill="none" xmlns="http://www.w3.org/2000/svg">
<g clip-path="url(#clip0)">
<path d="M1602.79 3866.46C1785.81 3867.55 1933.3 4016.49 1932.22 4199.13C1931.14 4381.78 1781.9 4528.97 1598.88 4527.88C1415.87 4526.8 1268.38 4377.86 1269.46 4195.21C1270.54 4012.57 1419.78 3865.38 1602.79 3866.46Z" stroke="#E3E6E9"/>
<path d="M177.026 340.933L514.023 686.373L162.023 1311.87L1265 2042L292.5 2747L1465 4120.5" stroke="#E3E6E9"/>
<circle cx="177.379" cy="340.583" r="22.9982" transform="rotate(-89.6611 177.379 340.583)" fill="#3CBEB3"/>
<circle cx="165.655" cy="1314.01" r="22.9982" transform="rotate(-89.6611 165.655 1314.01)" fill="#3CBEB3"/>
<circle cx="290.134" cy="2748.13" r="22.9982" transform="rotate(-89.6611 290.134 2748.13)" fill="#3CBEB3"/>
<circle cx="512.573" cy="680.924" r="51.7459" transform="rotate(-89.6611 512.573 680.924)" fill="#FF9F1C"/>
<circle cx="1275.05" cy="2058.05" r="51.7459" transform="rotate(-89.6611 1275.05 2058.05)" fill="#FF9F1C"/>
<circle cx="1479.05" cy="4140.05" r="51.7459" transform="rotate(-89.6611 1479.05 4140.05)" fill="#FF9F1C"/>
<path d="M179.216 30.3447C351.221 31.362 489.834 171.343 488.819 342.999C487.803 514.656 347.544 652.987 175.539 651.97C3.53338 650.953 -135.08 510.971 -134.064 339.315C-133.049 167.659 7.21011 29.3273 179.216 30.3447Z" stroke="#E3E6E9"/>
</g>
<defs>
<clipPath id="clip0">
<rect width="1920" height="4641" fill="white"/>
</clipPath>
</defs>
</svg>
