<svg width="15" height="13" viewBox="0 0 15 13" fill="none" xmlns="http://www.w3.org/2000/svg">
<path d="M4.92441 12.5474C3.23313 12.5474 1.65656 12.0555 0.32959 11.2067C1.45624 11.2796 3.44451 11.105 4.68122 9.9254C2.82081 9.84003 1.9818 8.41318 1.87236 7.80342C2.03044 7.8644 2.78433 7.93757 3.20991 7.76683C1.06983 7.23024 0.741524 5.35216 0.814481 4.77899C1.21575 5.05948 1.89668 5.15704 2.16419 5.13265C0.170025 3.7058 0.887438 1.55943 1.24007 1.09601C2.67115 3.07866 4.8159 4.19219 7.46924 4.25412C7.41921 4.03471 7.39279 3.80628 7.39279 3.57165C7.39279 1.88783 8.75379 0.522827 10.4327 0.522827C11.3099 0.522827 12.1003 0.89546 12.6551 1.4915C13.2413 1.35415 14.1235 1.0326 14.5548 0.754538C14.3374 1.53504 13.6606 2.18613 13.2512 2.42745C13.2546 2.43566 13.2479 2.41921 13.2512 2.42745C13.6108 2.37306 14.5838 2.18607 14.9682 1.92529C14.7781 2.36376 14.0606 3.0928 13.4718 3.50096C13.5813 8.33255 9.88466 12.5474 4.92441 12.5474Z" fill="#C4C4C4"/>
</svg>
