<svg width="30" height="30" viewBox="0 0 30 30" fill="none" xmlns="http://www.w3.org/2000/svg">
<g clip-path="url(#clip0)">
<path d="M23.3683 9.29911C22.8181 9.53627 22.2204 9.70703 21.6038 9.77344C22.2394 9.39397 22.7232 8.79632 22.9509 8.08482C22.3627 8.43583 21.6987 8.69196 21.0061 8.82478C20.4464 8.22712 19.6496 7.85714 18.7673 7.85714C17.0692 7.85714 15.7031 9.2327 15.7031 10.9213C15.7031 11.1585 15.7316 11.3956 15.779 11.6233C13.2366 11.4905 10.9693 10.2762 9.46094 8.41685C9.19531 8.87221 9.04353 9.39397 9.04353 9.96317C9.04353 11.0257 9.58426 11.9648 10.4096 12.5151C9.90681 12.4961 9.43248 12.3538 9.02455 12.1261C9.02455 12.1356 9.02455 12.1546 9.02455 12.1641C9.02455 13.6535 10.0776 14.8867 11.4816 15.1713C11.2254 15.2377 10.9503 15.2757 10.6752 15.2757C10.476 15.2757 10.2863 15.2567 10.0965 15.2282C10.4855 16.4425 11.6144 17.3248 12.9615 17.3532C11.9085 18.1786 10.5898 18.6624 9.15737 18.6624C8.90123 18.6624 8.66406 18.6529 8.41741 18.6244C9.774 19.4972 11.3867 20 13.1228 20C18.7578 20 21.841 15.3326 21.841 11.2818C21.841 11.149 21.841 11.0162 21.8315 10.8834C22.4291 10.447 22.9509 9.90625 23.3683 9.29911Z" fill="#F3F8FE"/>
<circle cx="15" cy="15" r="15" stroke="#F3F8FE"/>
</g>
<defs>
<clipPath id="clip0">
<rect width="30" height="30" fill="white"/>
</clipPath>
</defs>
</svg>
